<?xml version="1.0" encoding="UTF-8"?>
<svg width="512" height="512" viewBox="0 0 512 512" xmlns="http://www.w3.org/2000/svg">
  <!-- Azure DevOps inspired icon -->
  <defs>
    <linearGradient id="azureGradient" x1="0%" y1="0%" x2="100%" y2="100%">
      <stop offset="0%" style="stop-color:#0078D4;stop-opacity:1" />
      <stop offset="100%" style="stop-color:#004B87;stop-opacity:1" />
    </linearGradient>
  </defs>
  
  <!-- Background -->
  <rect width="512" height="512" rx="100" fill="url(#azureGradient)"/>
  
  <!-- Infinity symbol representing DevOps -->
  <path d="M 256 206 
           C 206 206, 166 246, 166 296
           C 166 346, 206 386, 256 386
           C 306 386, 346 346, 346 296
           C 346 246, 386 206, 436 206
           C 486 206, 526 246, 526 296
           C 526 346, 486 386, 436 386
           C 386 386, 346 346, 346 296
           C 346 246, 306 206, 256 206 Z" 
        fill="none" 
        stroke="white" 
        stroke-width="40" 
        stroke-linecap="round"
        transform="translate(-90, -40) scale(0.8)"/>
</svg>